HIERARCHY
ROOT root
{
	OFFSET 0.000000 0.000000 0.000000
	CHANNELS 6 Xposition Yposition Zposition Zrotation Yrotation Xrotation
	JOINT lhip
	{
		OFFSET 0.058581 -0.082280 -0.017664
		CHANNELS 3 Zrotation Yrotation Xrotation
		JOINT lknee
		{
			OFFSET 0.043451 -0.386469 0.008037
			CHANNELS 3 Zrotation Yrotation Xrotation
			JOINT lankle
			{
				OFFSET -0.014790 -0.426874 -0.037428
				CHANNELS 3 Zrotation Yrotation Xrotation
				JOINT ltoe
				{
					OFFSET 0.041054 -0.060286 0.122042
					CHANNELS 3 Zrotation Yrotation Xrotation
					End Site
					{
						OFFSET 0.000000 0.000000 0.000000
					}
				}
			}
		}
	}
	JOINT rhip
	{
		OFFSET -0.060310 -0.090513 -0.013543
		CHANNELS 3 Zrotation Yrotation Xrotation
		JOINT rknee
		{
			OFFSET -0.043257 -0.383688 -0.004843
			CHANNELS 3 Zrotation Yrotation Xrotation
			JOINT rankle
			{
				OFFSET 0.019056 -0.420046 -0.034562
				CHANNELS 3 Zrotation Yrotation Xrotation
				JOINT rtoe
				{
					OFFSET -0.034840 -0.062106 0.130323
					CHANNELS 3 Zrotation Yrotation Xrotation
					End Site
					{
						OFFSET 0.000000 0.000000 0.000000
					}
				}
			}
		}
	}
	JOINT lowerback
	{
		OFFSET 0.004439 0.124404 -0.038385
		CHANNELS 3 Zrotation Yrotation Xrotation
		JOINT upperback
		{
			OFFSET 0.004488 0.137956 0.026820
			CHANNELS 3 Zrotation Yrotation Xrotation
			JOINT chest
			{
				OFFSET -0.002265 0.056032 0.002855
				CHANNELS 3 Zrotation Yrotation Xrotation
				JOINT lowerneck
				{
					OFFSET -0.013390 0.211636 -0.033468
					CHANNELS 3 Zrotation Yrotation Xrotation
					JOINT upperneck
					{
						OFFSET 0.010113 0.088937 0.050410
						CHANNELS 3 Zrotation Yrotation Xrotation
						End Site
						{
							OFFSET 0.000000 0.000000 0.000000
						}
					}
				}
				JOINT lclavicle
				{
					OFFSET 0.071702 0.114000 -0.018898
					CHANNELS 3 Zrotation Yrotation Xrotation
					JOINT lshoulder
					{
						OFFSET 0.122921 0.045205 -0.019046
						CHANNELS 3 Zrotation Yrotation Xrotation
						JOINT lelbow
						{
							OFFSET 0.255332 -0.015649 -0.022946
							CHANNELS 3 Zrotation Yrotation Xrotation
							JOINT lwrist
							{
								OFFSET 0.265709 0.012698 -0.007375
								CHANNELS 3 Zrotation Yrotation Xrotation
								End Site
								{
									OFFSET 0.000000 0.000000 0.000000
								}
							}
						}
					}
				}
				JOINT rclavicle
				{
					OFFSET -0.082954 0.112472 -0.023707
					CHANNELS 3 Zrotation Yrotation Xrotation
					JOINT rshoulder
					{
						OFFSET -0.113228 0.046853 -0.008472
						CHANNELS 3 Zrotation Yrotation Xrotation
						JOINT relbow
						{
							OFFSET -0.260127 -0.014369 -0.031269
							CHANNELS 3 Zrotation Yrotation Xrotation
							JOINT rwrist
							{
								OFFSET -0.269108 0.006794 -0.006027
								CHANNELS 3 Zrotation Yrotation Xrotation
								End Site
								{
									OFFSET 0.000000 0.000000 0.000000
								}
							}
						}
					}
				}
			}
		}
	}
}
MOTION
Frames: 15
Frame Time: 0.033333
-0.306541 0.489196 0.806852 -174.357866 -1.245192 86.109417 3.206628 5.239354 -32.752648 7.120893 11.109545 82.230771 -1.877168 8.098081 -41.724246 0.000000 -0.000000 0.000000 -6.802881 -4.288345 -55.982258 -7.641117 -6.823459 83.865533 5.582994 -5.218043 -22.824784 0.000000 -0.000000 0.000000 2.337607 -0.718794 74.089692 -5.529161 2.772269 2.044294 4.395913 1.099233 4.720759 -10.775775 6.935473 -3.717336 -11.308194 21.336193 -34.007221 -18.318327 -2.349618 -7.673729 -48.227123 4.785521 -9.185378 86.527121 -81.057980 -70.852174 21.370601 -12.895260 1.690098 2.128908 21.053934 -12.034546 25.836334 36.787868 -10.450329 -109.141044 66.573992 -99.223075 -8.931337 21.297317 21.316567 
-0.298343 0.504977 0.802619 -173.891318 -1.937667 85.850399 3.579564 5.371863 -32.276574 6.671331 10.668583 83.954885 -2.649024 7.525701 -41.022297 0.000000 -0.000000 0.000000 -6.644834 -3.662887 -55.250242 -8.115042 -6.232481 85.518760 4.994245 -6.159134 -24.866631 0.000000 -0.000000 0.000000 2.143064 -0.972187 73.946465 -5.425343 2.953474 2.229399 4.376798 1.152151 4.622595 -10.687746 6.650283 -3.391931 -11.466005 21.355276 -33.919266 -18.919668 -2.306556 -7.474042 -48.439968 5.254258 -9.167572 85.827094 -81.214644 -69.912878 21.380727 -12.824922 1.617434 2.384682 21.300117 -11.824044 25.424267 36.491294 -10.633419 -109.303617 67.226856 -99.341524 -9.271766 21.326841 20.966561 
-0.290084 0.521067 0.799772 -173.507423 -2.806655 85.707272 4.068050 5.225084 -32.304380 6.297202 10.607749 86.199125 -3.641242 6.831587 -38.989866 0.000000 -0.000000 0.000000 -6.614043 -2.642879 -54.401824 -8.712760 -5.660171 86.842322 4.433818 -7.316118 -26.761399 0.000000 -0.000000 0.000000 1.779125 -1.204022 73.692007 -5.318007 3.170983 2.495731 4.269415 1.263060 4.527255 -10.678418 6.305713 -3.044578 -11.557642 21.225519 -33.890213 -19.526413 -2.136684 -7.247311 -48.749591 5.698551 -9.043126 83.467659 -81.266182 -67.348590 21.123139 -12.637039 1.487069 2.536722 21.515194 -11.661538 25.105748 36.367879 -10.673357 -109.162401 67.693940 -99.059010 -9.626552 21.304740 20.586906 
-0.281796 0.537178 0.797666 -173.039862 -3.807193 85.700663 5.004348 4.601737 -33.576453 6.147294 11.080058 89.741958 -4.979969 5.724133 -34.491700 0.000000 -0.000000 0.000000 -6.676739 -1.603108 -53.481363 -9.365457 -5.185918 87.913503 3.766798 -8.644467 -28.503619 0.000000 -0.000000 0.000000 1.384496 -1.318977 73.267799 -5.080377 3.212601 2.868723 4.115705 1.307481 4.371474 -10.589291 6.085351 -2.832903 -11.640629 21.056377 -33.845757 -20.016659 -1.742386 -7.014495 -49.192181 6.140335 -8.803172 80.517367 -81.140268 -64.226905 20.873280 -12.403305 1.252890 2.564844 21.603991 -11.558984 25.033741 36.505109 -10.390507 -108.636765 67.987224 -98.286214 -9.975130 21.202860 20.213541 
-0.273909 0.553712 0.795123 -172.537646 -4.828393 85.551820 6.480535 3.663898 -35.887347 6.413830 12.036479 94.150867 -6.398993 4.851097 -27.347560 0.000000 -0.000000 0.000000 -6.862233 -0.702039 -52.301160 -10.012634 -4.904300 88.965808 2.956776 -9.984455 -30.209501 0.000000 -0.000000 0.000000 0.932865 -1.241662 72.925599 -4.718795 3.147426 3.288362 4.018265 1.324989 4.172352 -10.384354 5.891580 -2.695614 -11.627941 20.812503 -33.793707 -20.569889 -1.181215 -6.822887 -49.537088 6.596730 -8.453203 78.371811 -80.954576 -62.091337 20.627226 -12.131271 1.085582 2.734963 21.626685 -11.435479 24.617152 36.691300 -10.144466 -108.252533 68.265314 -97.722342 -10.297252 21.154554 19.877642 
-0.266672 0.570491 0.792124 -172.143575 -5.686701 85.315102 8.201336 2.972214 -38.728793 7.031168 13.116110 98.604367 -6.131415 4.819127 -20.335900 0.000000 -0.000000 0.000000 -6.885713 0.125160 -50.968059 -10.295420 -4.741489 89.950004 2.198721 -11.712506 -31.806122 0.000000 -0.000000 0.000000 0.508024 -1.020753 72.638144 -4.448173 3.115811 3.554311 3.955022 1.343615 4.018179 -10.203560 5.095430 -2.612234 -11.230982 20.859856 -33.671719 -21.070509 -0.610814 -6.454939 -49.703232 6.993717 -8.329976 76.487513 -81.009480 -60.065115 20.962562 -11.711541 1.000961 2.902637 21.651452 -11.216683 24.106208 36.662850 -9.981010 -108.418860 68.408673 -97.656806 -10.448125 21.168812 19.605553 
-0.260103 0.587394 0.789568 -171.866748 -6.309945 85.182760 9.316995 3.250785 -41.846985 7.781298 14.142952 101.439412 -4.815525 4.294171 -20.219420 0.000000 -0.000000 0.000000 -6.216347 0.697151 -49.680940 -10.437406 -4.055499 90.660737 2.197306 -13.474555 -33.234076 0.000000 -0.000000 0.000000 0.123676 -0.691059 72.414166 -4.346663 3.021043 3.345813 3.994905 1.464927 4.040871 -10.202415 3.825486 -2.529841 -10.581946 21.110799 -33.480364 -21.424711 -0.232363 -5.951063 -49.944596 7.456845 -8.774774 73.726438 -81.243062 -57.026158 21.326850 -11.476174 0.922689 2.805343 21.674784 -11.007106 24.054501 36.401673 -9.780204 -108.913798 68.409923 -97.976060 -10.355848 21.178412 19.494791 
-0.254821 0.604620 0.788453 -171.256647 -6.836059 85.015207 9.158324 4.360958 -45.318257 7.751074 15.974630 100.436503 -4.672375 2.735486 -24.150495 0.000000 -0.000000 0.000000 -5.522351 0.998255 -48.094465 -10.672498 -3.444811 91.023302 2.704900 -15.006948 -34.673877 0.000000 -0.000000 0.000000 0.011337 -0.508497 72.357085 -4.272164 2.598328 2.948142 4.039237 1.566709 4.124336 -10.047979 2.781624 -2.669536 -9.961847 20.898828 -33.034255 -21.814235 -0.115884 -5.649269 -50.161614 8.032579 -9.310325 70.323507 -81.245850 -53.848047 21.163948 -11.590532 0.985200 2.741752 21.604879 -10.805616 24.092412 36.116502 -9.795095 -109.465690 68.461266 -98.557315 -10.268781 21.219434 19.596687 
-0.250922 0.622445 0.788484 -170.490708 -7.473177 84.883968 7.598824 6.049009 -48.830124 7.584243 18.852713 95.986341 -4.699434 1.160546 -27.297451 0.000000 -0.000000 0.000000 -4.931831 0.981344 -46.330953 -11.112752 -2.699060 91.224906 3.299929 -16.084759 -36.170868 0.000000 -0.000000 0.000000 0.085328 -0.330353 72.376782 -4.297063 1.931963 2.632132 4.064869 1.590092 4.091369 -10.034877 1.879438 -2.901402 -9.348860 20.681137 -32.771288 -22.310098 -0.397674 -5.392987 -50.266577 8.600139 -9.720333 67.190959 -81.079764 -51.086678 21.189119 -11.777016 1.170577 2.849494 21.576231 -10.595577 24.154814 35.620700 -9.861478 -109.992270 68.518549 -99.305934 -10.223621 21.274668 19.719090 
-0.248244 0.640587 0.789383 -169.698863 -7.958651 85.003782 5.222795 7.763169 -51.841372 8.176151 22.352050 89.706148 -4.481731 0.941362 -28.893991 0.000000 -0.000000 0.000000 -4.298586 0.969675 -44.663572 -11.662028 -2.106013 91.205325 3.874566 -17.035086 -37.508543 0.000000 -0.000000 0.000000 0.228918 -0.253338 72.021779 -4.403929 1.378534 2.272032 4.031154 1.617802 4.151077 -10.135392 1.434550 -3.301185 -9.039205 20.819570 -32.235741 -22.769670 -0.746303 -5.183787 -50.232693 9.049027 -9.895100 62.745241 -80.975998 -46.971707 20.960126 -12.093123 1.688557 3.027852 21.479140 -10.337354 24.452968 35.142693 -9.663848 -109.898835 68.488683 -99.578678 -10.035475 21.378963 19.912340 
-0.246905 0.659335 0.791717 -168.933032 -8.114685 85.288857 2.697998 8.931898 -53.561098 9.227219 26.180090 82.943333 -4.329087 1.340746 -28.902849 0.000000 -0.000000 0.000000 -3.650182 1.045029 -43.026223 -12.238063 -2.002179 90.977184 4.352524 -17.856071 -38.456827 0.000000 -0.000000 0.000000 0.592847 -0.246949 71.170290 -4.551949 1.036149 2.156446 3.919586 1.661911 4.139611 -10.208865 1.562874 -3.816029 -9.025117 21.125781 -31.326179 -23.048945 -1.029644 -5.116447 -50.310667 9.247643 -9.765088 56.882831 -80.667601 -41.682940 20.444723 -12.510430 2.543758 3.338680 21.266073 -10.023263 25.065167 34.679374 -9.083041 -109.205913 68.379523 -99.336667 -9.886237 21.572685 20.358323 
-0.247227 0.679486 0.794747 -168.341496 -8.047269 85.580684 0.516750 9.353743 -53.820415 9.911717 29.433506 77.227622 -4.780724 2.002020 -26.607676 0.000000 -0.000000 0.000000 -3.048369 1.019402 -41.254178 -12.776003 -2.163803 90.692217 4.638880 -18.363320 -38.985115 0.000000 -0.000000 0.000000 1.048731 -0.125833 69.900707 -4.692982 0.918535 2.378428 3.763959 1.715431 4.087920 -10.265046 2.293805 -4.455789 -9.363121 21.650564 -30.500191 -23.269592 -1.280402 -5.170841 -50.498009 9.300677 -9.323785 51.943182 -80.187429 -37.418150 20.092520 -12.854051 3.277041 3.840586 21.031398 -9.674614 25.782638 34.012631 -8.198258 -108.409343 68.323672 -98.934071 -9.920984 21.776439 20.485474 
-0.248845 0.701800 0.798194 -167.934174 -7.695386 85.751564 -0.765688 9.004696 -52.817991 9.856393 30.779256 73.795743 -4.201757 2.841043 -22.144236 0.000000 -0.000000 0.000000 -2.398298 0.918341 -39.187484 -12.969220 -2.726257 90.411125 4.631339 -19.027826 -39.105315 0.000000 -0.000000 0.000000 1.328831 0.231610 68.323322 -4.687758 1.067359 2.798499 3.667589 1.798736 3.977089 -10.250105 3.461051 -5.184834 -10.023764 22.574613 -29.621755 -23.568100 -1.349871 -5.205131 -50.561476 9.272493 -8.745535 48.008905 -79.741528 -33.909689 20.006636 -13.031537 4.077183 4.626991 20.869416 -9.220057 26.828879 33.045408 -6.831363 -107.878102 68.245833 -98.662455 -9.622914 21.957013 20.694887 
-0.251635 0.726243 0.802167 -167.505478 -7.370386 85.924261 -1.508760 7.414082 -50.573234 9.567629 30.104316 71.807100 -0.171644 5.011495 -23.467667 0.000000 -0.000000 0.000000 -2.115492 0.488065 -37.229180 -12.286229 -3.497816 90.474807 5.084607 -19.533124 -38.765820 0.000000 -0.000000 0.000000 1.483596 0.929570 66.559593 -4.574317 1.209321 2.942157 3.648683 1.758511 4.020494 -9.855201 4.528333 -6.084892 -10.717354 23.757640 -28.471664 -23.875054 -1.306766 -5.119588 -50.334475 8.788968 -8.248905 43.324301 -79.290327 -29.820093 20.269357 -13.182532 4.847344 5.823438 20.410685 -8.862369 28.785493 31.827374 -4.548185 -107.717379 67.971803 -98.634668 -9.068533 22.075823 21.252688 
-0.254896 0.752680 0.807179 -167.151162 -7.051959 86.068739 -1.995626 5.307100 -47.913806 8.254597 27.547975 70.015489 2.335625 6.356269 -28.813416 0.000000 -0.000000 0.000000 -1.956526 -0.316446 -35.390999 -11.448528 -3.969196 90.909513 6.166951 -19.017933 -37.760974 0.000000 -0.000000 0.000000 1.654031 2.134479 65.062183 -4.364664 1.143442 2.574534 3.707263 1.626554 4.036187 -9.028254 5.823354 -7.222170 -10.896633 24.418452 -26.829927 -24.053363 -1.525987 -5.158380 -50.058414 7.951327 -7.654252 38.191119 -78.449964 -25.423114 20.810406 -13.381830 5.175703 7.481856 19.735462 -8.566420 31.456226 29.977354 -1.721417 -107.842741 67.861521 -98.624855 -8.936163 22.234290 21.332471 
